# xmcd
#
# Track frame offsets:
#	150
#	10683
#	24743
#	34712
#	46441
#	56809
#	66381
#	78316
#	89681
#	99814
#	109862
#	118785
#
# Disc length: 1721 seconds
#
# Revision: 1
# Processed by: cddbd v1.5.2PL0 Copyright (c) Steve Scherf et al.
# Submitted via: audiograbber 1.83.01
#
DISCID=9b06b70c
DTITLE=Kim Lenz - Up To My Old Tricks Again
DYEAR=2005
DGENRE=Rock A Billy
TTITLE0=Up To My Old Tricks Again
TTITLE1=Dang Cool Stuff
TTITLE2=Cool Love
TTITLE3=Saturday Jump
TTITLE4=Choctaw Boogie
TTITLE5=Down On The Farm
TTITLE6=Devil On My Shoulder
TTITLE7=You Ain't Seen Nothin'
TTITLE8=Comin' Back Strong
TTITLE9=You've Met Your Match
TTITLE10=Dancing Me To Death
TTITLE11=Shack A Leg
EXTD=
EXTT0=
EXTT1=
EXTT2=
EXTT3=
EXTT4=
EXTT5=
EXTT6=
EXTT7=
EXTT8=
EXTT9=
EXTT10=
EXTT11=
PLAYORDER=
